<svg xmlns="http://www.w3.org/2000/svg" xmlns:xlink="http://www.w3.org/1999/xlink" width="1080" zoomAndPan="magnify" viewBox="0 0 810 809.999993" height="1080" preserveAspectRatio="xMidYMid meet" version="1.2"><defs/><g id="c1eddf9972"><rect x="0" width="810" y="0" height="809.999993" style="fill:#ffffff;fill-opacity:1;stroke:none;"/><rect x="0" width="810" y="0" height="809.999993" style="fill:#ffffff;fill-opacity:1;stroke:none;"/><path style=" stroke:none;fill-rule:nonzero;fill:#3d93d0;fill-opacity:1;" d="M 49.113281 377.863281 L 79.75 358.324219 L 49.113281 419.679688 Z M 49.113281 377.863281 "/><path style=" stroke:none;fill-rule:nonzero;fill:#3d93d0;fill-opacity:1;" d="M 55.261719 459.464844 L 110.476562 350.273438 L 156.425781 350.273438 L 156.425781 392.414062 "/><path style=" stroke:none;fill-rule:nonzero;fill:#3d93d0;fill-opacity:1;" d="M 152.839844 422.472656 L 134.886719 459.464844 L 98.984375 459.464844 Z M 152.839844 422.472656 "/><g style="fill:#3d93d0;fill-opacity:1;"><g transform="translate(184.829437, 446.877846)"><path style="stroke:none" d="M 29.9375 -17.171875 L 66.984375 -17.171875 L 66.984375 0 L 6.140625 0 L 6.140625 -15.953125 L 42.9375 -68.953125 L 6.140625 -68.953125 L 6.140625 -86.125 L 66.984375 -86.125 L 66.984375 -70.171875 Z M 29.9375 -17.171875 "/></g></g><g style="fill:#3d93d0;fill-opacity:1;"><g transform="translate(257.949441, 446.877846)"><path style="stroke:none" d="M 72.140625 -35.328125 C 72.140625 -33.367188 72.015625 -31.328125 71.765625 -29.203125 L 24.296875 -29.203125 C 24.617188 -24.941406 25.984375 -21.6875 28.390625 -19.4375 C 30.804688 -17.195312 33.773438 -16.078125 37.296875 -16.078125 C 42.535156 -16.078125 46.175781 -18.285156 48.21875 -22.703125 L 70.546875 -22.703125 C 69.398438 -18.203125 67.332031 -14.148438 64.34375 -10.546875 C 61.363281 -6.953125 57.625 -4.128906 53.125 -2.078125 C 48.625 -0.0351562 43.59375 0.984375 38.03125 0.984375 C 31.320312 0.984375 25.347656 -0.445312 20.109375 -3.3125 C 14.878906 -6.175781 10.789062 -10.265625 7.84375 -15.578125 C 4.90625 -20.898438 3.4375 -27.117188 3.4375 -34.234375 C 3.4375 -41.347656 4.882812 -47.5625 7.78125 -52.875 C 10.6875 -58.195312 14.753906 -62.285156 19.984375 -65.140625 C 25.222656 -68.003906 31.238281 -69.4375 38.03125 -69.4375 C 44.65625 -69.4375 50.539062 -68.046875 55.6875 -65.265625 C 60.84375 -62.484375 64.875 -58.515625 67.78125 -53.359375 C 70.6875 -48.210938 72.140625 -42.203125 72.140625 -35.328125 Z M 50.671875 -40.859375 C 50.671875 -44.453125 49.441406 -47.3125 46.984375 -49.4375 C 44.535156 -51.570312 41.46875 -52.640625 37.78125 -52.640625 C 34.269531 -52.640625 31.304688 -51.613281 28.890625 -49.5625 C 26.484375 -47.519531 24.992188 -44.617188 24.421875 -40.859375 Z M 50.671875 -40.859375 "/></g></g><g style="fill:#3d93d0;fill-opacity:1;"><g transform="translate(333.523136, 446.877846)"><path style="stroke:none" d="M 28.59375 -58.765625 C 30.632812 -61.953125 33.453125 -64.523438 37.046875 -66.484375 C 40.648438 -68.453125 44.863281 -69.4375 49.6875 -69.4375 C 55.332031 -69.4375 60.441406 -68.003906 65.015625 -65.140625 C 69.597656 -62.285156 73.21875 -58.195312 75.875 -52.875 C 78.539062 -47.5625 79.875 -41.390625 79.875 -34.359375 C 79.875 -27.316406 78.539062 -21.117188 75.875 -15.765625 C 73.21875 -10.410156 69.597656 -6.28125 65.015625 -3.375 C 60.441406 -0.46875 55.332031 0.984375 49.6875 0.984375 C 44.945312 0.984375 40.753906 0.00390625 37.109375 -1.953125 C 33.472656 -3.921875 30.632812 -6.457031 28.59375 -9.5625 L 28.59375 32.640625 L 7.609375 32.640625 L 7.609375 -68.453125 L 28.59375 -68.453125 Z M 58.515625 -34.359375 C 58.515625 -39.585938 57.0625 -43.691406 54.15625 -46.671875 C 51.257812 -49.660156 47.6875 -51.15625 43.4375 -51.15625 C 39.257812 -51.15625 35.71875 -49.640625 32.8125 -46.609375 C 29.914062 -43.585938 28.46875 -39.460938 28.46875 -34.234375 C 28.46875 -28.992188 29.914062 -24.859375 32.8125 -21.828125 C 35.71875 -18.804688 39.257812 -17.296875 43.4375 -17.296875 C 47.601562 -17.296875 51.15625 -18.828125 54.09375 -21.890625 C 57.039062 -24.960938 58.515625 -29.117188 58.515625 -34.359375 Z M 58.515625 -34.359375 "/></g></g><g style="fill:#15ae5d;fill-opacity:1;"><g transform="translate(416.83505, 446.877846)"><path style="stroke:none" d="M 126.125 -86.125 L 103.671875 0 L 78.28125 0 L 64.53125 -56.6875 L 50.296875 0 L 24.90625 0 L 3.0625 -86.125 L 25.515625 -86.125 L 37.90625 -23.4375 L 53.25 -86.125 L 76.3125 -86.125 L 91.03125 -23.4375 L 103.546875 -86.125 Z M 126.125 -86.125 "/></g></g><g style="fill:#15ae5d;fill-opacity:1;"><g transform="translate(545.899217, 446.877846)"><path style="stroke:none" d="M 3.4375 -34.359375 C 3.4375 -41.390625 4.765625 -47.5625 7.421875 -52.875 C 10.078125 -58.195312 13.695312 -62.285156 18.28125 -65.140625 C 22.863281 -68.003906 27.972656 -69.4375 33.609375 -69.4375 C 38.441406 -69.4375 42.675781 -68.453125 46.3125 -66.484375 C 49.957031 -64.523438 52.757812 -61.953125 54.71875 -58.765625 L 54.71875 -68.453125 L 75.703125 -68.453125 L 75.703125 0 L 54.71875 0 L 54.71875 -9.6875 C 52.675781 -6.5 49.832031 -3.921875 46.1875 -1.953125 C 42.550781 0.00390625 38.320312 0.984375 33.5 0.984375 C 27.9375 0.984375 22.863281 -0.46875 18.28125 -3.375 C 13.695312 -6.28125 10.078125 -10.410156 7.421875 -15.765625 C 4.765625 -21.117188 3.4375 -27.316406 3.4375 -34.359375 Z M 54.71875 -34.234375 C 54.71875 -39.460938 53.265625 -43.585938 50.359375 -46.609375 C 47.460938 -49.640625 43.925781 -51.15625 39.75 -51.15625 C 35.582031 -51.15625 32.046875 -49.660156 29.140625 -46.671875 C 26.234375 -43.691406 24.78125 -39.585938 24.78125 -34.359375 C 24.78125 -29.117188 26.234375 -24.960938 29.140625 -21.890625 C 32.046875 -18.828125 35.582031 -17.296875 39.75 -17.296875 C 43.925781 -17.296875 47.460938 -18.804688 50.359375 -21.828125 C 53.265625 -24.859375 54.71875 -28.992188 54.71875 -34.234375 Z M 54.71875 -34.234375 "/></g></g><g style="fill:#15ae5d;fill-opacity:1;"><g transform="translate(629.202035, 446.877846)"><path style="stroke:none" d="M 35.453125 0.984375 C 29.484375 0.984375 24.164062 -0.0351562 19.5 -2.078125 C 14.84375 -4.128906 11.164062 -6.929688 8.46875 -10.484375 C 5.769531 -14.046875 4.253906 -18.035156 3.921875 -22.453125 L 24.65625 -22.453125 C 24.90625 -20.078125 26.007812 -18.15625 27.96875 -16.6875 C 29.9375 -15.21875 32.351562 -14.484375 35.21875 -14.484375 C 37.832031 -14.484375 39.851562 -14.992188 41.28125 -16.015625 C 42.71875 -17.035156 43.4375 -18.363281 43.4375 -20 C 43.4375 -21.957031 42.410156 -23.40625 40.359375 -24.34375 C 38.316406 -25.289062 35.003906 -26.335938 30.421875 -27.484375 C 25.515625 -28.628906 21.425781 -29.832031 18.15625 -31.09375 C 14.882812 -32.363281 12.0625 -34.367188 9.6875 -37.109375 C 7.320312 -39.847656 6.140625 -43.550781 6.140625 -48.21875 C 6.140625 -52.144531 7.222656 -55.722656 9.390625 -58.953125 C 11.554688 -62.179688 14.742188 -64.734375 18.953125 -66.609375 C 23.171875 -68.492188 28.179688 -69.4375 33.984375 -69.4375 C 42.566406 -69.4375 49.332031 -67.3125 54.28125 -63.0625 C 59.238281 -58.8125 62.082031 -53.164062 62.8125 -46.125 L 43.4375 -46.125 C 43.101562 -48.5 42.054688 -50.378906 40.296875 -51.765625 C 38.546875 -53.160156 36.238281 -53.859375 33.375 -53.859375 C 30.914062 -53.859375 29.03125 -53.382812 27.71875 -52.4375 C 26.414062 -51.5 25.765625 -50.210938 25.765625 -48.578125 C 25.765625 -46.617188 26.804688 -45.144531 28.890625 -44.15625 C 30.972656 -43.175781 34.222656 -42.195312 38.640625 -41.21875 C 43.710938 -39.914062 47.84375 -38.628906 51.03125 -37.359375 C 54.226562 -36.085938 57.03125 -34.039062 59.4375 -31.21875 C 61.851562 -28.394531 63.101562 -24.613281 63.1875 -19.875 C 63.1875 -15.863281 62.0625 -12.285156 59.8125 -9.140625 C 57.5625 -5.992188 54.328125 -3.519531 50.109375 -1.71875 C 45.898438 0.0820312 41.015625 0.984375 35.453125 0.984375 Z M 35.453125 0.984375 "/></g></g><g style="fill:#15ae5d;fill-opacity:1;"><g transform="translate(697.660034, 446.877846)"><path style="stroke:none" d="M 49.6875 -69.203125 C 57.539062 -69.203125 63.835938 -66.601562 68.578125 -61.40625 C 73.328125 -56.207031 75.703125 -49.070312 75.703125 -40 L 75.703125 0 L 54.84375 0 L 54.84375 -37.171875 C 54.84375 -41.753906 53.65625 -45.3125 51.28125 -47.84375 C 48.90625 -50.382812 45.71875 -51.65625 41.71875 -51.65625 C 37.707031 -51.65625 34.515625 -50.382812 32.140625 -47.84375 C 29.773438 -45.3125 28.59375 -41.753906 28.59375 -37.171875 L 28.59375 0 L 7.609375 0 L 7.609375 -90.78125 L 28.59375 -90.78125 L 28.59375 -59.265625 C 30.71875 -62.285156 33.617188 -64.695312 37.296875 -66.5 C 40.972656 -68.300781 45.101562 -69.203125 49.6875 -69.203125 Z M 49.6875 -69.203125 "/></g></g></g></svg>